<svg xmlns="http://www.w3.org/2000/svg" viewBox="0 0 110.9 30.17"><defs><style>.logo-cls-1{fill:#BE1E2D;}</style></defs><title>robusta</title><g id="Layer_2" data-name="Layer 2"><g id="Layer_1-2" data-name="Layer 1"><path class="logo-cls-1" d="M1.29,14.34A18.9,18.9,0,0,0,4.36,13c.5-.33.71-.5.83-.5s.37.37.37.5c0,.75-.08,1.5-.08,2.29,0,.17.21.21.29.17,1.62-1.54,3.45-2.58,4.74-2.58,1.7,0,2.08,1,2.08,1.41a2,2,0,0,1-.25.58,10.49,10.49,0,0,1-1.7,1.91,1.07,1.07,0,0,1-.58-.12,3.93,3.93,0,0,0-2.29-.92,2.44,2.44,0,0,0-1.83.58,1.57,1.57,0,0,0-.42.92c0,.83.21,8.35.25,9,.08,1.21.33,2,1.08,2.12l1.91.5c.67.21.75.5.75.66s-.37.38-1,.38c-1,0-2.5-.21-4.9-.21-1.25,0-1.75.17-2.74.17-.46,0-.87-.17-.87-.5s.5-.42.83-.54c1.62-.54,1.75-1,1.79-3.45V17.41a1.33,1.33,0,0,0-.46-1.25c-1-.79-1.41-1-1.41-1.12A.8.8,0,0,1,1.29,14.34Z"/><path class="logo-cls-1" d="M30,21.36a8.94,8.94,0,0,1-3.62,7.15,8.29,8.29,0,0,1-5.15,1.66A9,9,0,0,1,15.73,28a9.19,9.19,0,0,1-3.08-6.36,8,8,0,0,1,2.91-6.48,9.3,9.3,0,0,1,6.15-2.29A8.34,8.34,0,0,1,30,21.36Zm-11.8-6a7.79,7.79,0,0,0-2,5.32,12.43,12.43,0,0,0,.5,3.7c1,3.12,3.41,4.61,5.4,4.61a3.81,3.81,0,0,0,2.54-1.37,9.86,9.86,0,0,0-.21-11.84,5.24,5.24,0,0,0-3.49-1.62A4.37,4.37,0,0,0,18.23,15.33Z"/><path class="logo-cls-1" d="M45.13,28.3a9.53,9.53,0,0,1-5.65,1.87,23.45,23.45,0,0,1-5.28-.83,1.17,1.17,0,0,0-.87.13,1.52,1.52,0,0,1-.5.13c-.17,0-.25-.25-.25-.54.21-3.24.25-10.39.25-13.8,0-3.95-.12-10.1-.21-10.68a2.79,2.79,0,0,0-1-1.41c-.62-.46-.83-.58-.83-.79a2.08,2.08,0,0,1,.5-.58A22.46,22.46,0,0,0,34.66.5a3.76,3.76,0,0,1,1-.5c.17,0,.46.37.46.54-.12,2.74-.37,6.69-.37,10,0,1.08,0,3.12.08,3.57,0,.08.21.21.25.17a9.45,9.45,0,0,1,4.74-1.41A7.87,7.87,0,0,1,46,14.71,8.08,8.08,0,0,1,48.75,21,9.14,9.14,0,0,1,45.13,28.3ZM43.26,16.5a6.48,6.48,0,0,0-4.53-1.79,4.22,4.22,0,0,0-2.49.62,1,1,0,0,0-.33.62c0,.37-.08,1.54-.08,2.41,0,2.16.12,4.41.33,6.65A2.94,2.94,0,0,0,37,27.09a6.48,6.48,0,0,0,3.86,1.75,5.25,5.25,0,0,0,2.54-1.41c1.16-1.12,1.91-3.7,1.91-5.57A8.59,8.59,0,0,0,43.26,16.5Z"/><path class="logo-cls-1" d="M62.36,26.64a2.43,2.43,0,0,0,.63-1l.08-9.56a1.54,1.54,0,0,0-.71-.91l-1.91-.5c-.29-.08-.83-.33-.83-.66,0-.17.54-.37,1-.37A20.55,20.55,0,0,0,65,13.17,3.29,3.29,0,0,1,66,13c.21,0,.29.46.29.63-.08,1.16-.42,10.39-.42,13.8,0,.08.17.58.5.58s1.58-.21,2.08-.21c.17,0,.46.66.5.79a.66.66,0,0,1-.46.42,26.45,26.45,0,0,0-3.78.79,14.43,14.43,0,0,1-1.45.38c-.17,0-.41-.29-.41-.58s.13-1,.17-1.75c0-.21-.12-.33-.21-.29a28.66,28.66,0,0,1-3.41,2.12,7.21,7.21,0,0,1-2.79.5,4.23,4.23,0,0,1-3.66-2,4.17,4.17,0,0,1-.58-2c0-3,0-7.69-.08-9.89,0-1.16-.83-1.33-1.54-1.62-.37-.17-.75-.37-.75-.75,0-.12.21-.37.7-.37,1.16,0,4.24-.46,4.41-.46s.33.37.33.62c0,1.41-.12,9.27-.12,11.14a3,3,0,0,0,1,2.33,3.86,3.86,0,0,0,2.83.83A5.07,5.07,0,0,0,62.36,26.64Z"/><path class="logo-cls-1" d="M87.31,6.94c.71,1.2.87,2.91.87,6.07,0,.13.17.46.33.46.91,0,4.82-.08,5-.08a.66.66,0,0,1,.67.5,10.59,10.59,0,0,1,.13,1.33c0,.41-.79.45-1.08.45l-4.7,0c-.08,0-.21.12-.21.37v8.48A3.49,3.49,0,0,0,89,26.76a2.91,2.91,0,0,0,2.33.91A4.22,4.22,0,0,0,93.5,27a1.12,1.12,0,0,1,.58-.25c.17,0,.46.29.46.71a7.49,7.49,0,0,1-1,1.2,6.54,6.54,0,0,1-4,1.5,4.6,4.6,0,0,1-3.66-2,4.76,4.76,0,0,1-.58-2.7c0-1.54.12-8,.12-9.43,0-.29-.17-.37-1.29-.54a.47.47,0,0,1-.46-.5c0-.21,0-.21.21-.37,1-.79,1.41-1.08,1.5-1.58a23.6,23.6,0,0,0,.25-3.2c0-2-1-3.66-3.78-3.66a4,4,0,0,0-3.91,4.16,3.46,3.46,0,0,0,.62,2.53l.29.25,1.21.54c.21.08.33.37.37.75a20.12,20.12,0,0,1,.13,2.08c0,.17-.37.71-.66.71S79.29,16.46,79,16a3.15,3.15,0,0,0-3-2,2.51,2.51,0,0,0-2.49,2.37c0,1.83.83,2.33,4.32,4.2,2.37,1.33,3.36,2.87,3.36,4.65a4.92,4.92,0,0,1-2.57,3.95,8.65,8.65,0,0,1-3.83,1c-1.2,0-3.2-.29-3.91-1a7.58,7.58,0,0,1-1-3.41c0-.5.29-.87.46-.87.33,0,.71.58,1,1.08,1.2,2.12,2.87,2.95,3.95,2.95a2.68,2.68,0,0,0,2.82-2.87c0-.87-.37-1.79-2-2.62-1.16-.66-2-1.08-3.12-1.87a4.73,4.73,0,0,1-2.29-3.86,4.5,4.5,0,0,1,2.53-4,7.5,7.5,0,0,1,3.33-.87c.13,0,.17-.08.13-.25a7.11,7.11,0,0,1-.5-2.37c0-3.66,2.5-5.95,6.19-5.95A5.48,5.48,0,0,1,87.31,6.94Z"/><path class="logo-cls-1" d="M106.62,14.84a5.22,5.22,0,0,1,.83,3.45c0,1.62-.17,6.86-.17,7.31,0,1.91,1.33,2.08,1.66,2.08a4.66,4.66,0,0,0,1.58-.62c.12-.08.16,0,.25.12a.65.65,0,0,1,.12.41c0,.79-1.87,2.58-3.74,2.58a2.79,2.79,0,0,1-2.66-2.08s-.17-.21-.25-.17a16.26,16.26,0,0,1-3.74,1.91,7.29,7.29,0,0,1-1.66.25C97.4,30.09,96,28.3,96,26.22a3.58,3.58,0,0,1,.79-2.12,4,4,0,0,1,1.66-1c.62-.25,3.95-1.16,4.86-1.46s1.21-.5,1.21-.75.08-2.91.08-3.41a3.22,3.22,0,0,0-3.24-2.79,2.89,2.89,0,0,0-1.7.46c-.25.12-.37.87-.29,1.71a1,1,0,0,1-.25.46,15,15,0,0,1-2.7,1.37.62.62,0,0,1-.5-.54c0-1.2,1.16-2.37,3.12-3.66a8.91,8.91,0,0,1,3.87-1.58A4.19,4.19,0,0,1,106.62,14.84Zm-2.74,12.38a2.34,2.34,0,0,0,.5-1c.08-1,.08-2.41.08-3.24a.4.4,0,0,0-.33-.33,12.59,12.59,0,0,0-4.28,1.25A1.61,1.61,0,0,0,99,25.43a2.6,2.6,0,0,0,2.62,2.49A5.33,5.33,0,0,0,103.88,27.22Z"/></g></g></svg>
